<svg width="29" height="28" viewBox="0 0 29 28" fill="none" xmlns="http://www.w3.org/2000/svg">
<path d="M14.5007 2.33331C8.07232 2.33331 2.83398 7.57165 2.83398 14C2.83398 20.4283 8.07232 25.6666 14.5007 25.6666C20.929 25.6666 26.1673 20.4283 26.1673 14C26.1673 7.57165 20.929 2.33331 14.5007 2.33331ZM19.1673 14.875H15.3757V18.6666C15.3757 19.145 14.979 19.5416 14.5007 19.5416C14.0223 19.5416 13.6257 19.145 13.6257 18.6666V14.875H9.83398C9.35565 14.875 8.95898 14.4783 8.95898 14C8.95898 13.5216 9.35565 13.125 9.83398 13.125H13.6257V9.33331C13.6257 8.85498 14.0223 8.45831 14.5007 8.45831C14.979 8.45831 15.3757 8.85498 15.3757 9.33331V13.125H19.1673C19.6457 13.125 20.0423 13.5216 20.0423 14C20.0423 14.4783 19.6457 14.875 19.1673 14.875Z" fill="#0256BA"/>
</svg>
