<svg width="38" height="38" viewBox="0 0 38 38" fill="none" xmlns="http://www.w3.org/2000/svg">
<path d="M26.3995 3.51074H11.6012C8.34683 3.51074 5.67578 6.1818 5.67578 9.43618V31.0656C5.67578 33.8287 7.65604 34.9954 10.0815 33.6599L17.5727 29.4998C18.371 29.0546 19.6604 29.0546 20.4433 29.4998L27.9346 33.6599C30.36 35.0107 32.3403 33.8441 32.3403 31.0656V9.43618C32.3249 6.1818 29.6692 3.51074 26.3995 3.51074ZM24.5574 14.4406L18.417 20.5809C18.1867 20.8112 17.8951 20.9186 17.6034 20.9186C17.3117 20.9186 17.0201 20.8112 16.7898 20.5809L14.4872 18.2783C14.042 17.8331 14.042 17.0963 14.4872 16.6511C14.9324 16.2059 15.6692 16.2059 16.1144 16.6511L17.6034 18.1401L22.9302 12.8134C23.3753 12.3682 24.1122 12.3682 24.5574 12.8134C25.0025 13.2585 25.0025 13.9954 24.5574 14.4406Z" fill="#0256BA"/>
</svg>
