<svg width="20" height="20" viewBox="0 0 20 20" fill="none" xmlns="http://www.w3.org/2000/svg">
<path d="M16.75 5.78335C16.75 6.23335 16.5083 6.64169 16.125 6.85002L14.675 7.63335L13.4417 8.29169L10.8833 9.67502C10.6083 9.82502 10.3083 9.90002 10 9.90002C9.69167 9.90002 9.39167 9.82502 9.11667 9.67502L3.875 6.85002C3.49167 6.64169 3.25 6.23335 3.25 5.78335C3.25 5.33335 3.49167 4.92502 3.875 4.71669L5.51667 3.83335L6.825 3.12502L9.11667 1.89169C9.66667 1.59169 10.3333 1.59169 10.8833 1.89169L16.125 4.71669C16.5083 4.92502 16.75 5.33335 16.75 5.78335Z" fill="#0256BA"/>
<path d="M8.24896 10.6583L3.37396 8.22499C2.99896 8.03333 2.56563 8.05833 2.20729 8.275C1.84896 8.49166 1.64062 8.87499 1.64062 9.29166V13.9C1.64062 14.7 2.08229 15.4167 2.79896 15.775L7.67396 18.2083C7.84063 18.2917 8.02396 18.3333 8.20729 18.3333C8.42396 18.3333 8.64063 18.275 8.83229 18.15C9.19063 17.9333 9.39896 17.55 9.39896 17.1333V12.525C9.40729 11.7333 8.96562 11.0167 8.24896 10.6583Z" fill="#0256BA"/>
<path d="M18.3565 9.29169V13.9C18.3565 14.6917 17.9148 15.4084 17.1982 15.7667L12.3232 18.2084C12.1565 18.2917 11.9732 18.3334 11.7898 18.3334C11.5732 18.3334 11.3565 18.275 11.1565 18.15C10.8065 17.9334 10.5898 17.55 10.5898 17.1334V12.5334C10.5898 11.7334 11.0315 11.0167 11.7482 10.6584L13.5398 9.76669L14.7898 9.14169L16.6232 8.22502C16.9982 8.03336 17.4315 8.05002 17.7898 8.27502C18.1398 8.49169 18.3565 8.87502 18.3565 9.29169Z" fill="#0256BA"/>
<path d="M14.674 7.63333L13.4406 8.29167L5.51562 3.83333L6.82396 3.125L14.474 7.44167C14.5573 7.49167 14.624 7.55833 14.674 7.63333Z" fill="#0256BA"/>
<path d="M14.793 9.14166V11.0333C14.793 11.375 14.5096 11.6583 14.168 11.6583C13.8263 11.6583 13.543 11.375 13.543 11.0333V9.76666L14.793 9.14166Z" fill="#0256BA"/>
</svg>
