<svg width="20" height="20" viewBox="0 0 20 20" fill="none" xmlns="http://www.w3.org/2000/svg">
<path fill-rule="evenodd" clip-rule="evenodd" d="M1.6665 5.08333C1.6665 4.6231 2.0396 4.25 2.49984 4.25H14.1665C14.6267 4.25 14.9998 4.6231 14.9998 5.08333C14.9998 5.54357 14.6267 5.91667 14.1665 5.91667H2.49984C2.0396 5.91667 1.6665 5.54357 1.6665 5.08333Z" fill="white"/>
<path fill-rule="evenodd" clip-rule="evenodd" d="M1.6665 10.0833C1.6665 9.6231 2.0396 9.25 2.49984 9.25H17.4998C17.9601 9.25 18.3332 9.6231 18.3332 10.0833C18.3332 10.5436 17.9601 10.9167 17.4998 10.9167H2.49984C2.0396 10.9167 1.6665 10.5436 1.6665 10.0833Z" fill="white"/>
<path fill-rule="evenodd" clip-rule="evenodd" d="M1.6665 15.0001C1.6665 14.5398 2.0396 14.1667 2.49984 14.1667H12.5832C13.0434 14.1667 13.4165 14.5398 13.4165 15.0001C13.4165 15.4603 13.0434 15.8334 12.5832 15.8334H2.49984C2.0396 15.8334 1.6665 15.4603 1.6665 15.0001Z" fill="white"/>
</svg>
