<svg width="18" height="18" viewBox="0 0 18 18" fill="none" xmlns="http://www.w3.org/2000/svg">
<path d="M9.00033 0.666748C4.40866 0.666748 0.666992 4.40841 0.666992 9.00008C0.666992 13.5917 4.40866 17.3334 9.00033 17.3334C13.592 17.3334 17.3337 13.5917 17.3337 9.00008C17.3337 4.40841 13.592 0.666748 9.00033 0.666748ZM12.9837 7.08341L8.25866 11.8084C8.14199 11.9251 7.98366 11.9917 7.81699 11.9917C7.65033 11.9917 7.49199 11.9251 7.37533 11.8084L5.01699 9.45008C4.77533 9.20841 4.77533 8.80841 5.01699 8.56675C5.25866 8.32508 5.65866 8.32508 5.90033 8.56675L7.81699 10.4834L12.1003 6.20008C12.342 5.95842 12.742 5.95842 12.9837 6.20008C13.2253 6.44175 13.2253 6.83341 12.9837 7.08341Z" fill="#0256BA"/>
</svg>
