<svg width="20" height="20" viewBox="0 0 20 20" fill="none" xmlns="http://www.w3.org/2000/svg">
<path d="M5.28601 12.357C4.63513 13.0078 4.63513 14.0631 5.28601 14.714C5.93688 15.3649 6.99216 15.3649 7.64303 14.714L10.0001 12.357L12.3571 14.714C13.0079 15.3648 14.0632 15.3648 14.7141 14.714C15.365 14.0631 15.365 13.0078 14.7141 12.357L12.3571 9.99993L14.7141 7.64291C15.365 6.99203 15.365 5.93676 14.7141 5.28589C14.0632 4.63501 13.0079 4.63501 12.3571 5.28589L10.0001 7.64291L7.64303 5.28588C6.99216 4.63501 5.93688 4.63501 5.28601 5.28588C4.63513 5.93676 4.63513 6.99203 5.28601 7.64291L7.64303 9.99993L5.28601 12.357Z" fill="white"/>
</svg>
