<svg width="20" height="20" viewBox="0 0 20 20" fill="none" xmlns="http://www.w3.org/2000/svg">
<path d="M16.75 5.78335C16.75 6.23335 16.5083 6.64169 16.125 6.85002L14.675 7.63335L13.4417 8.29169L10.8833 9.67502C10.6083 9.82502 10.3083 9.90002 10 9.90002C9.69167 9.90002 9.39167 9.82502 9.11667 9.67502L3.875 6.85002C3.49167 6.64169 3.25 6.23335 3.25 5.78335C3.25 5.33335 3.49167 4.92502 3.875 4.71669L5.51667 3.83335L6.825 3.12502L9.11667 1.89169C9.66667 1.59169 10.3333 1.59169 10.8833 1.89169L16.125 4.71669C16.5083 4.92502 16.75 5.33335 16.75 5.78335Z" fill="#0256BA"/>
<path d="M8.25091 10.6583L3.37591 8.22499C3.00091 8.03333 2.56758 8.05833 2.20924 8.275C1.85091 8.49166 1.64258 8.87499 1.64258 9.29166V13.9C1.64258 14.7 2.08424 15.4167 2.80091 15.775L7.67591 18.2083C7.84258 18.2917 8.02591 18.3333 8.20925 18.3333C8.42591 18.3333 8.64258 18.275 8.83425 18.15C9.19258 17.9333 9.40091 17.55 9.40091 17.1333V12.525C9.40924 11.7333 8.96758 11.0167 8.25091 10.6583Z" fill="#0256BA"/>
<path d="M18.3585 9.29169V13.9C18.3585 14.6917 17.9168 15.4084 17.2001 15.7667L12.3251 18.2084C12.1585 18.2917 11.9751 18.3334 11.7918 18.3334C11.5751 18.3334 11.3585 18.275 11.1585 18.15C10.8085 17.9334 10.5918 17.55 10.5918 17.1334V12.5334C10.5918 11.7334 11.0335 11.0167 11.7501 10.6584L13.5418 9.76669L14.7918 9.14169L16.6251 8.22502C17.0001 8.03336 17.4335 8.05002 17.7918 8.27502C18.1418 8.49169 18.3585 8.87502 18.3585 9.29169Z" fill="#0256BA"/>
<path d="M14.6759 7.63333L13.4426 8.29167L5.51758 3.83333L6.82591 3.125L14.4759 7.44167C14.5592 7.49167 14.6259 7.55833 14.6759 7.63333Z" fill="#0256BA"/>
<path d="M14.791 9.14166V11.0333C14.791 11.375 14.5077 11.6583 14.166 11.6583C13.8243 11.6583 13.541 11.375 13.541 11.0333V9.76666L14.791 9.14166Z" fill="#0256BA"/>
</svg>
