<svg width="20" height="20" viewBox="0 0 20 20" fill="none" xmlns="http://www.w3.org/2000/svg">
<path d="M13.2499 6.72484C12.8749 3.8665 10.4333 1.6665 7.47493 1.6665C4.24993 1.6665 1.6416 4.27484 1.6416 7.49984C1.6416 10.4582 3.8416 12.8998 6.69993 13.2748C6.94993 13.3165 7.20827 13.3332 7.47493 13.3332C7.57191 13.3332 7.66763 13.3307 7.76259 13.3256C7.94623 13.3159 8.02164 13.0965 7.8916 12.9665V12.9665C7.64993 12.7165 7.64993 12.3248 7.8916 12.0832C8.13327 11.8332 8.53327 11.8332 8.77493 12.0832L9.4245 12.7327C9.54126 12.8495 9.71654 12.8876 9.86739 12.8204C10.1861 12.6786 10.4876 12.5084 10.7719 12.3117C10.9754 12.1709 10.9883 11.8816 10.8124 11.7076L10.3916 11.2915C10.1499 11.0498 10.1416 10.6582 10.3916 10.4082C10.6333 10.1665 11.0249 10.1582 11.2749 10.3998L11.6987 10.8189C11.8736 10.9918 12.1607 10.9772 12.3007 10.775C12.493 10.4972 12.6604 10.2024 12.7979 9.89066C12.864 9.7407 12.8254 9.56699 12.7095 9.4511L12.0583 8.79984C11.8166 8.54984 11.8166 8.15817 12.0583 7.9165C12.2999 7.6665 12.6999 7.6665 12.9416 7.9165V7.9165C13.0716 8.04654 13.291 7.97114 13.3007 7.78749C13.3058 7.69254 13.3083 7.59681 13.3083 7.49984C13.3083 7.23317 13.2916 6.97484 13.2499 6.72484Z" fill="#9AA8BC"/>
<path d="M18.3083 12.4999C18.3083 15.7249 15.7 18.3332 12.475 18.3332C10.0332 18.3332 7.93806 16.8332 7.07629 14.6939C6.97195 14.4348 7.1957 14.1665 7.47497 14.1665V14.1665C7.76663 14.1665 8.04163 14.1499 8.32497 14.1082L8.74587 14.0521C8.87451 14.0349 9.0038 14.0787 9.09556 14.1705L9.5333 14.6082C9.6583 14.7332 9.81663 14.7915 9.97497 14.7915C10.1416 14.7915 10.3 14.7332 10.4166 14.6082C10.6666 14.3665 10.6666 13.9665 10.4166 13.7249V13.7249C10.3364 13.6446 10.3615 13.5084 10.4631 13.4578C10.7956 13.2921 11.1363 13.0809 11.443 12.853C11.6161 12.7244 11.8592 12.7327 12.0127 12.8843L12.4166 13.2832C12.5416 13.3999 12.7 13.4665 12.8583 13.4665C13.0166 13.4665 13.1833 13.3999 13.3 13.2749C13.5416 13.0332 13.5416 12.6332 13.2916 12.3915L12.8933 11.9981C12.741 11.8477 12.7283 11.607 12.8545 11.4341C13.074 11.133 13.2801 10.8054 13.444 10.4846C13.4933 10.3881 13.6233 10.3648 13.7 10.4415V10.4415C13.825 10.5665 13.9833 10.6249 14.1416 10.6249C14.3083 10.6249 14.4666 10.5665 14.5833 10.4415C14.8333 10.1999 14.8333 9.79987 14.5833 9.5582L14.1456 9.12047C14.0538 9.0287 14.01 8.89941 14.0272 8.77077L14.0833 8.34987C14.125 8.06654 14.1416 7.79154 14.1416 7.49987V7.49987C14.1416 7.22073 14.4099 6.99719 14.6687 7.10178C16.8019 7.96392 18.3083 10.0586 18.3083 12.4999Z" fill="#9AA8BC" fill-opacity="0.29"/>
</svg>
