<svg width="19" height="18" viewBox="0 0 19 18" fill="none" xmlns="http://www.w3.org/2000/svg">
<path fill-rule="evenodd" clip-rule="evenodd" d="M13.425 4.5C13.0775 2.78832 11.5642 1.5 9.75 1.5C7.93578 1.5 6.42247 2.78832 6.07501 4.5H3C2.58579 4.5 2.25 4.83579 2.25 5.25C2.25 5.66421 2.58579 6 3 6H3.80166L4.30289 13.0172C4.44306 14.9796 6.07596 16.5 8.04336 16.5H11.4566C13.424 16.5 15.0569 14.9796 15.1971 13.0172L15.6983 6H16.5C16.9142 6 17.25 5.66421 17.25 5.25C17.25 4.83579 16.9142 4.5 16.5 4.5H13.425ZM9.75 3C8.77034 3 7.93691 3.62611 7.62803 4.5H11.872C11.5631 3.62611 10.7297 3 9.75 3ZM8.25 7.5C8.66421 7.5 9 7.83579 9 8.25V12.75C9 13.1642 8.66421 13.5 8.25 13.5C7.83579 13.5 7.5 13.1642 7.5 12.75V8.25C7.5 7.83579 7.83579 7.5 8.25 7.5ZM12 8.25C12 7.83579 11.6642 7.5 11.25 7.5C10.8358 7.5 10.5 7.83579 10.5 8.25V12.75C10.5 13.1642 10.8358 13.5 11.25 13.5C11.6642 13.5 12 13.1642 12 12.75V8.25Z" fill="#DB0000"/>
</svg>
