<svg width="19" height="18" viewBox="0 0 19 18" fill="none" xmlns="http://www.w3.org/2000/svg">
<path d="M16.5 16.5H3C2.6925 16.5 2.4375 16.245 2.4375 15.9375C2.4375 15.63 2.6925 15.375 3 15.375H16.5C16.8075 15.375 17.0625 15.63 17.0625 15.9375C17.0625 16.245 16.8075 16.5 16.5 16.5Z" fill="#0256BA"/>
<path d="M15.0149 2.61C13.5599 1.155 12.1349 1.1175 10.6424 2.61L9.73493 3.5175C9.65993 3.5925 9.62993 3.7125 9.65993 3.8175C10.2299 5.805 11.8199 7.395 13.8074 7.965C13.8374 7.9725 13.8674 7.98 13.8974 7.98C13.9799 7.98 14.0549 7.95 14.1149 7.89L15.0149 6.9825C15.7574 6.2475 16.1174 5.535 16.1174 4.815C16.1249 4.0725 15.7649 3.3525 15.0149 2.61Z" fill="#0256BA"/>
<path d="M12.4582 8.64748C12.2407 8.54248 12.0307 8.43748 11.8282 8.31748C11.6632 8.21998 11.5057 8.11498 11.3482 8.00248C11.2207 7.91998 11.0707 7.79998 10.9282 7.67998C10.9132 7.67248 10.8607 7.62748 10.8007 7.56748C10.5532 7.35748 10.2757 7.08748 10.0282 6.78748C10.0057 6.77248 9.96823 6.71998 9.91573 6.65248C9.84073 6.56248 9.71323 6.41248 9.60073 6.23998C9.51073 6.12748 9.40573 5.96248 9.30823 5.79748C9.18823 5.59498 9.08323 5.39248 8.97823 5.18248C8.84056 4.88747 8.45337 4.79983 8.22317 5.03003L4.00573 9.24748C3.90823 9.34498 3.81823 9.53248 3.79573 9.65998L3.39073 12.5325C3.31573 13.0425 3.45823 13.5225 3.77323 13.845C4.04323 14.1075 4.41823 14.25 4.82323 14.25C4.91323 14.25 5.00323 14.2425 5.09323 14.2275L7.97323 13.8225C8.10823 13.8 8.29573 13.71 8.38573 13.6125L12.6101 9.38807C12.8357 9.16248 12.751 8.77433 12.4582 8.64748Z" fill="#0256BA"/>
</svg>
