<svg width="20" height="20" viewBox="0 0 20 20" fill="none" xmlns="http://www.w3.org/2000/svg">
<path d="M12.3757 3.29159V6.45825H11.1257V3.29159C11.1257 3.06659 10.9257 2.95825 10.7923 2.95825C10.7507 2.95825 10.709 2.96659 10.6673 2.98325L4.05898 5.47492C3.61732 5.64159 3.33398 6.05825 3.33398 6.53325V7.09159C2.57565 7.65825 2.08398 8.56659 2.08398 9.59159V6.53325C2.08398 5.54159 2.69232 4.65825 3.61732 4.30825L10.234 1.80825C10.4173 1.74159 10.609 1.70825 10.7923 1.70825C11.6257 1.70825 12.3757 2.38325 12.3757 3.29159Z" fill="white"/>
<path d="M17.9159 12.0834V12.9167C17.9159 13.1417 17.7409 13.3251 17.5076 13.3334H16.2909C15.8493 13.3334 15.4493 13.0084 15.4159 12.5751C15.3909 12.3167 15.4909 12.0751 15.6576 11.9084C15.8076 11.7501 16.0159 11.6667 16.2409 11.6667H17.4993C17.7409 11.6751 17.9159 11.8584 17.9159 12.0834Z" fill="white"/>
<path d="M16.234 10.7916H17.084C17.5423 10.7916 17.9173 10.4166 17.9173 9.95825V9.59159C17.9173 7.86659 16.509 6.45825 14.784 6.45825H5.21732C4.50898 6.45825 3.85898 6.69159 3.33398 7.09159C2.57565 7.65825 2.08398 8.56659 2.08398 9.59159V15.1999C2.08398 16.9249 3.49232 18.3333 5.21732 18.3333H14.784C16.509 18.3333 17.9173 16.9249 17.9173 15.1999V15.0416C17.9173 14.5833 17.5423 14.2083 17.084 14.2083H16.359C15.559 14.2083 14.7923 13.7166 14.584 12.9416C14.409 12.3083 14.6173 11.6999 15.034 11.2916C15.3423 10.9749 15.7673 10.7916 16.234 10.7916ZM11.6673 10.6249H5.83398C5.49232 10.6249 5.20898 10.3416 5.20898 9.99992C5.20898 9.65825 5.49232 9.37492 5.83398 9.37492H11.6673C12.009 9.37492 12.2923 9.65825 12.2923 9.99992C12.2923 10.3416 12.009 10.6249 11.6673 10.6249Z" fill="white"/>
</svg>
