<svg width="20" height="21" viewBox="0 0 20 21" fill="none" xmlns="http://www.w3.org/2000/svg">
<path d="M10 0.5C4.48 0.5 0 4.98 0 10.5C0 16.02 4.48 20.5 10 20.5C15.52 20.5 20 16.02 20 10.5C20 4.98 15.52 0.5 10 0.5ZM14.03 11.03L11.03 14.03C10.88 14.18 10.69 14.25 10.5 14.25C10.31 14.25 10.12 14.18 9.97 14.03C9.68 13.74 9.68 13.26 9.97 12.97L11.69 11.25H6.5C6.09 11.25 5.75 10.91 5.75 10.5C5.75 10.09 6.09 9.75 6.5 9.75H11.69L9.97 8.03C9.68 7.74 9.68 7.26 9.97 6.97C10.26 6.68 10.74 6.68 11.03 6.97L14.03 9.97C14.32 10.26 14.32 10.74 14.03 11.03Z" fill="#0256BA"/>
</svg>
