<svg width="16" height="17" viewBox="0 0 16 17" fill="none" xmlns="http://www.w3.org/2000/svg">
<path d="M13.7467 6.13341C13.0467 3.05341 10.36 1.66675 8 1.66675C8 1.66675 8 1.66675 7.99334 1.66675C5.64 1.66675 2.94667 3.04675 2.24667 6.12675C1.46667 9.56675 3.57334 12.4801 5.48 14.3134C6.18667 14.9934 7.09334 15.3334 8 15.3334C8.90667 15.3334 9.81334 14.9934 10.5133 14.3134C12.42 12.4801 14.5267 9.57341 13.7467 6.13341ZM8 9.47341C6.84 9.47341 5.9 8.53342 5.9 7.37341C5.9 6.21342 6.84 5.27341 8 5.27341C9.16 5.27341 10.1 6.21342 10.1 7.37341C10.1 8.53342 9.16 9.47341 8 9.47341Z" fill="#0256BA"/>
</svg>
