<svg width="24" height="24" viewBox="0 0 24 24" fill="none" xmlns="http://www.w3.org/2000/svg">
<path fill-rule="evenodd" clip-rule="evenodd" d="M17.3987 3.22499C18.0273 3.56866 18.5746 4.04338 19.0037 4.617C19.5566 5.35612 19.7865 6.22742 19.8947 7.23933C20 8.22405 20 9.46567 20 11.0128V12.987C20 14.5342 20 15.7759 19.8947 16.7607C19.7865 17.7726 19.5566 18.6439 19.0037 19.383C18.5746 19.9566 18.0273 20.4313 17.3987 20.775C16.5888 21.2178 15.6938 21.3221 14.6767 21.2862C13.687 21.2512 12.4578 21.0756 10.9261 20.8567L10.8197 20.8415C9.64033 20.6731 8.68518 20.5366 7.92126 20.3521C7.12996 20.161 6.4525 19.8988 5.86486 19.4258C5.39982 19.0515 5.00558 18.5969 4.70079 18.0836C4.31565 17.435 4.1519 16.7273 4.0746 15.9169C3.99998 15.1346 3.99999 14.1697 4 12.9785V11.0216C3.99999 9.83028 3.99998 8.86544 4.0746 8.08312C4.1519 7.27274 4.31565 6.565 4.70079 5.91638C5.00558 5.40308 5.39982 4.94851 5.86486 4.5742C6.4525 4.1012 7.12996 3.839 7.92126 3.64788C8.68517 3.46336 9.6403 3.32693 10.8196 3.15847L10.9261 3.14325C12.4578 2.92442 13.687 2.74881 14.6767 2.71382C15.6938 2.67786 16.5888 2.78217 17.3987 3.22499ZM12.7071 9.70711C13.0976 9.31658 13.0976 8.68342 12.7071 8.29289C12.3166 7.90237 11.6834 7.90237 11.2929 8.29289L8.29289 11.2929C7.90237 11.6834 7.90237 12.3166 8.29289 12.7071L11.2929 15.7071C11.6834 16.0976 12.3166 16.0976 12.7071 15.7071C13.0976 15.3166 13.0976 14.6834 12.7071 14.2929L11.4142 13H18V11H11.4142L12.7071 9.70711Z" fill="#DD2033"/>
</svg>
