<svg width="30" height="32" viewBox="0 0 30 32" fill="none" xmlns="http://www.w3.org/2000/svg">
<path d="M8.22309 3.22036L8.04492 3.02808V5.57067V12.2927V17.8635V18.8228V25.1817V31.9722H8.22308H9.88131V25.1817V20.7003V18.8228V12.2927V5.81049V5.57067V5.17324L8.70959 3.74796L8.22309 3.22036Z" fill="#1C54DA"/>
<path d="M5.46191 5.57085V12.2929V13.8894V18.823V25.1819V31.9724H6.38011V25.1819V18.823V15.3147V12.2929V5.57085V5.15287L7.29831 4.06336V2.19271L5.46191 0V5.57085Z" fill="#1C54DA"/>
<path d="M3.13086 5.57085V10.3057V10.6004V12.2929V18.823V25.1819V31.9724H4.97411V25.1819V18.823V13.1425V12.2929V5.57085V0L3.13086 2.19271V5.57085Z" fill="#F3912F"/>
<path d="M0.925049 6.73568V6.90698V10.1207L0.0616716 11.1485L0 11.217V12.2928V18.823V25.1818V31.9724H0.0616716H0.925049H1.28822H1.84325V25.1818V18.823V12.2928V9.06543L2.76144 10.1618V9.7438V5.5708V4.54297L1.89806 5.5708L0.925049 6.73568Z" fill="#F3912F"/>
<path fill-rule="evenodd" clip-rule="evenodd" d="M9.07031 31.9998H10.9204V24.9802V20.3476V18.4068V11.6563V4.8308L9.4481 3.35767H15.0818V16.2519L22.7392 3.35767H29.2158L20.5923 17.8936L28.7149 31.9999H21.9162L15.0818 20.1632V31.9999H9.07031V31.9998Z" fill="#1C54DA"/>
</svg>
