<svg width="16" height="16" viewBox="0 0 16 16" fill="none" xmlns="http://www.w3.org/2000/svg">
<path d="M5.52661 4.19325C5.24661 4.19325 5.02661 3.96658 5.02661 3.69325V1.83325C5.02661 1.55992 5.24661 1.33325 5.52661 1.33325C5.80661 1.33325 6.02661 1.55992 6.02661 1.83325V3.68659C6.02661 3.96658 5.80661 4.19325 5.52661 4.19325Z" fill="#226BC2"/>
<path d="M10.4734 4.19325C10.1934 4.19325 9.97339 3.96658 9.97339 3.69325V1.83325C9.97339 1.55325 10.2001 1.33325 10.4734 1.33325C10.7534 1.33325 10.9734 1.55992 10.9734 1.83325V3.68659C10.9734 3.96658 10.7534 4.19325 10.4734 4.19325Z" fill="#226BC2"/>
<path d="M14.3332 10.5468C14.3332 10.6468 14.2999 10.7468 14.2132 10.8335C13.2465 11.8068 11.5265 13.5401 10.5399 14.5335C10.4532 14.6268 10.3399 14.6668 10.2265 14.6668C10.0065 14.6668 9.79321 14.4935 9.79321 14.2401V11.9068C9.79321 10.9335 10.6199 10.1268 11.6332 10.1268C12.2665 10.1201 13.1465 10.1201 13.8999 10.1201C14.1599 10.1201 14.3332 10.3268 14.3332 10.5468Z" fill="#226BC2"/>
<path d="M14.3332 10.5468C14.3332 10.6468 14.2999 10.7468 14.2132 10.8335C13.2465 11.8068 11.5265 13.5401 10.5399 14.5335C10.4532 14.6268 10.3399 14.6668 10.2265 14.6668C10.0065 14.6668 9.79321 14.4935 9.79321 14.2401V11.9068C9.79321 10.9335 10.6199 10.1268 11.6332 10.1268C12.2665 10.1201 13.1465 10.1201 13.8999 10.1201C14.1599 10.1201 14.3332 10.3268 14.3332 10.5468Z" fill="#226BC2"/>
<path d="M13.0467 2.99992C12.6067 2.67325 11.9734 2.98659 11.9734 3.53992V3.60659C11.9734 4.38659 11.4134 5.10659 10.6334 5.18659C9.73341 5.27992 8.97341 4.57325 8.97341 3.69325V2.99992C8.97341 2.63325 8.67341 2.33325 8.30675 2.33325H7.69341C7.32675 2.33325 7.02675 2.63325 7.02675 2.99992V3.60659C7.02675 4.19325 6.71341 4.73992 6.22675 5.00659C6.20008 5.02659 6.17341 5.03992 6.14675 5.05325C6.14008 5.05325 6.14008 5.05992 6.13341 5.05992C6.08675 5.07992 6.04008 5.09992 5.98675 5.11992C5.97341 5.12659 5.96008 5.12659 5.94675 5.13325C5.86675 5.15992 5.78008 5.17992 5.68675 5.18659H5.68008C5.58008 5.19992 5.47341 5.19992 5.37341 5.18659H5.36675C5.27341 5.17992 5.18675 5.15992 5.10675 5.13325C5.04008 5.11325 4.97341 5.08659 4.90675 5.05325C4.38675 4.81992 4.02675 4.29992 4.02675 3.69325V3.53992C4.02675 3.02659 3.48008 2.71992 3.04675 2.93992C3.04008 2.94659 3.03341 2.94659 3.02675 2.95325H3.02008C2.97341 2.98659 2.93341 3.01992 2.88675 3.05325C2.81341 3.11325 2.74008 3.17325 2.67341 3.23992C2.62675 3.28659 2.58008 3.33325 2.54008 3.37992C2.48675 3.43325 2.44008 3.48659 2.39341 3.54659C2.36008 3.58659 2.32008 3.62659 2.29341 3.67325C2.26008 3.71325 2.23341 3.75992 2.20675 3.79992C2.20008 3.80659 2.19341 3.81325 2.18675 3.82659C2.12675 3.91325 2.07341 4.01325 2.02675 4.10659C2.01341 4.11992 2.00675 4.12659 2.00675 4.13992C1.96675 4.21992 1.92675 4.29992 1.90008 4.38659C1.88008 4.41992 1.87341 4.44659 1.86008 4.47992C1.84675 4.50659 1.84008 4.53992 1.82675 4.56659C1.80675 4.63325 1.78675 4.70659 1.76675 4.77992C1.74008 4.87325 1.72008 4.97325 1.70675 5.07325C1.69341 5.14659 1.68675 5.21992 1.68008 5.29992C1.67341 5.39325 1.66675 5.48659 1.66675 5.57992V11.4199C1.66675 13.2133 3.12008 14.6666 4.91341 14.6666H8.12675C8.49341 14.6666 8.79341 14.3666 8.79341 13.9999V11.9066C8.79341 10.3733 10.0667 9.12659 11.6334 9.12659C11.9867 9.11992 12.8467 9.11992 13.6667 9.11992C14.0334 9.11992 14.3334 8.81992 14.3334 8.45325V5.57992C14.3334 4.51992 13.8267 3.59325 13.0467 2.99992ZM7.42008 10.6066C7.36008 10.8066 7.17341 10.9466 6.95341 10.9466H4.52675C4.49341 10.9466 4.46675 10.9466 4.44008 10.9333C4.20008 10.8999 4.02675 10.6933 4.02675 10.4466C4.02675 10.1666 4.24675 9.93992 4.52675 9.93992H6.95341C7.22675 9.93992 7.45341 10.1666 7.45341 10.4466C7.45341 10.4999 7.44675 10.5599 7.42008 10.6066ZM9.27341 8.13325C9.21341 8.33325 9.02675 8.47325 8.80675 8.47325H4.52675C4.49341 8.47325 4.46675 8.47325 4.44008 8.45992C4.20008 8.42659 4.02675 8.21992 4.02675 7.97325C4.02675 7.69325 4.24675 7.46659 4.52675 7.46659H8.80675C9.08675 7.46659 9.30675 7.69325 9.30675 7.97325C9.30675 8.02659 9.30008 8.08659 9.27341 8.13325Z" fill="#226BC2"/>
</svg>
