<svg width="16" height="16" viewBox="0 0 16 16" fill="none" xmlns="http://www.w3.org/2000/svg">
<path d="M13.3058 5.97335C12.8592 5.48002 12.1858 5.19335 11.2525 5.09335V4.58668C11.2525 3.67335 10.8658 2.79335 10.1858 2.18001C9.49918 1.55335 8.60585 1.26001 7.67918 1.34668C6.08585 1.50001 4.74585 3.04001 4.74585 4.70668V5.09335C3.81251 5.19335 3.13918 5.48002 2.69251 5.97335C2.04585 6.69335 2.06585 7.65335 2.13918 8.32001L2.60585 12.0333C2.74585 13.3333 3.27251 14.6667 6.13918 14.6667H9.85918C12.7258 14.6667 13.2525 13.3333 13.3925 12.04L13.8592 8.31335C13.9325 7.65335 13.9458 6.69335 13.3058 5.97335ZM7.77251 2.27335C8.43918 2.21335 9.07251 2.42002 9.56585 2.86668C10.0525 3.30668 10.3258 3.93335 10.3258 4.58668V5.05335H5.67251V4.70668C5.67251 3.52002 6.65251 2.38002 7.77251 2.27335ZM5.61251 8.76668H5.60585C5.23918 8.76668 4.93918 8.46668 4.93918 8.10002C4.93918 7.73335 5.23918 7.43335 5.60585 7.43335C5.97918 7.43335 6.27918 7.73335 6.27918 8.10002C6.27918 8.46668 5.97918 8.76668 5.61251 8.76668ZM10.2792 8.76668H10.2725C9.90585 8.76668 9.60585 8.46668 9.60585 8.10002C9.60585 7.73335 9.90585 7.43335 10.2725 7.43335C10.6458 7.43335 10.9458 7.73335 10.9458 8.10002C10.9458 8.46668 10.6458 8.76668 10.2792 8.76668Z" fill="#718196"/>
</svg>
