<svg width="43" height="42" viewBox="0 0 43 42" fill="none" xmlns="http://www.w3.org/2000/svg">
<path fill-rule="evenodd" clip-rule="evenodd" d="M11.2347 18.1258C12.1455 18.4492 12.6216 19.4498 12.2982 20.3605L6.87758 35.6238L22.1398 30.2178C23.0508 29.8951 24.051 30.3721 24.3736 31.2831C24.6963 32.1941 24.2194 33.1943 23.3084 33.517L4.58336 40.1495C3.94719 40.3748 3.23815 40.2142 2.76112 39.7368C2.2841 39.2594 2.12412 38.5502 2.34998 37.9142L8.99998 19.1892C9.32343 18.2785 10.324 17.8023 11.2347 18.1258Z" fill="#0256BA"/>
<path fill-rule="evenodd" clip-rule="evenodd" d="M5.75 5.24976C5.75 4.28326 6.5335 3.49976 7.5 3.49976H7.5175C8.484 3.49976 9.2675 4.28326 9.2675 5.24976C9.2675 6.21625 8.484 6.99976 7.5175 6.99976H7.5C6.5335 6.99976 5.75 6.21625 5.75 5.24976Z" fill="#0256BA"/>
<path fill-rule="evenodd" clip-rule="evenodd" d="M37.25 14.0002C37.25 13.0337 38.0335 12.2502 39 12.2502H39.0175C39.984 12.2502 40.7675 13.0337 40.7675 14.0002C40.7675 14.9667 39.984 15.7502 39.0175 15.7502H39C38.0335 15.7502 37.25 14.9667 37.25 14.0002Z" fill="#0256BA"/>
<path fill-rule="evenodd" clip-rule="evenodd" d="M25 3.50024C25 2.53375 25.7835 1.75024 26.75 1.75024H26.7675C27.734 1.75024 28.5175 2.53375 28.5175 3.50024C28.5175 4.46674 27.734 5.25024 26.7675 5.25024H26.75C25.7835 5.25024 25 4.46674 25 3.50024Z" fill="#0256BA"/>
<path fill-rule="evenodd" clip-rule="evenodd" d="M37.25 35.0002C37.25 34.0337 38.0335 33.2502 39 33.2502H39.0175C39.984 33.2502 40.7675 34.0337 40.7675 35.0002C40.7675 35.9667 39.984 36.7502 39.0175 36.7502H39C38.0335 36.7502 37.25 35.9667 37.25 35.0002Z" fill="#0256BA"/>
<path fill-rule="evenodd" clip-rule="evenodd" d="M40.6588 2.94437C40.9657 3.86086 40.4715 4.85258 39.555 5.15944L35.6324 6.4728C34.9013 6.71631 34.2776 7.20618 33.8677 7.85866C33.4578 8.51115 33.2872 9.28574 33.3852 10.05L33.3878 10.0703C33.682 12.601 31.7124 14.875 29.1119 14.875H28.4469C27.7612 14.875 27.2049 15.3482 27.0859 15.9724L27.0835 15.9851L26.716 17.8401C26.5282 18.7881 25.6073 19.4044 24.6593 19.2166C23.7112 19.0288 23.0949 18.108 23.2827 17.1599L23.6491 15.3105C24.093 12.9985 26.1248 11.375 28.4469 11.375H29.1119C29.5891 11.375 29.9633 10.9579 29.9118 10.4813C29.7145 8.9169 30.065 7.33227 30.9039 5.99684C31.745 4.65799 33.0248 3.65271 34.5248 3.15269C34.5243 3.15286 34.5253 3.15252 34.5248 3.15269L38.4437 1.84053C39.3602 1.53367 40.3519 2.02788 40.6588 2.94437Z" fill="#0256BA"/>
<path fill-rule="evenodd" clip-rule="evenodd" d="M32.3755 23.8118C32.8465 21.1328 35.6677 19.5408 38.2074 20.5449L38.2174 20.5489L38.2174 20.5489L39.6524 21.1264C40.549 21.4872 40.9833 22.5066 40.6225 23.4032C40.2617 24.2998 39.2423 24.7342 38.3457 24.3733L36.917 23.7984C36.4506 23.6165 35.9181 23.9095 35.8243 24.4084C35.4883 26.4773 33.6894 27.9999 31.5965 27.9999H30.249C29.2825 27.9999 28.499 27.2164 28.499 26.2499C28.499 25.2834 29.2825 24.4999 30.249 24.4999H31.5965C31.9813 24.4999 32.3121 24.2132 32.3702 23.8432L32.3755 23.8118Z" fill="#0256BA"/>
<path fill-rule="evenodd" clip-rule="evenodd" d="M19.0976 1.87651C19.9942 1.51568 21.0136 1.95002 21.3744 2.84663L21.9559 4.29156C22.96 6.83133 21.368 9.6525 18.689 10.1235C18.6705 10.1268 18.652 10.1297 18.6335 10.1324C18.303 10.1796 18.001 10.4977 18.001 10.9025V12.25C18.001 13.2165 17.2175 14 16.251 14C15.2845 14 14.501 13.2165 14.501 12.25V10.9025C14.501 8.83495 16.0004 6.99302 18.0997 6.67329C18.5942 6.57577 18.8834 6.04614 18.7025 5.58196L18.1275 4.15332C17.7667 3.25671 18.201 2.23734 19.0976 1.87651Z" fill="#0256BA"/>
<path fill-rule="evenodd" clip-rule="evenodd" d="M12.212 20.5066C12.2118 20.5064 12.2143 20.5045 12.2201 20.5017C12.2152 20.5054 12.2122 20.5068 12.212 20.5066ZM12.2418 20.4928C12.2813 20.4791 12.3642 20.4599 12.5147 20.459C12.8404 20.457 13.3403 20.5484 14.0013 20.8132C15.3171 21.3402 16.949 22.4249 18.5115 23.9873C20.074 25.5498 21.1586 27.1817 21.6857 28.4975C21.9504 29.1585 22.0418 29.6584 22.0398 29.9842C22.0389 30.1346 22.0197 30.2175 22.006 30.257C21.9665 30.2707 21.8836 30.2899 21.7332 30.2908C21.4074 30.2928 20.9076 30.2014 20.2465 29.9366C18.9307 29.4096 17.2988 28.325 15.7364 26.7625C14.1739 25.2 13.0893 23.5681 12.5622 22.2523C12.2974 21.5913 12.206 21.0914 12.208 20.7656C12.209 20.6152 12.2281 20.5323 12.2418 20.4928ZM21.9923 30.2868C21.992 30.2866 21.9935 30.2837 21.9972 30.2787C21.9943 30.2845 21.9925 30.287 21.9923 30.2868ZM22.0277 30.2482C22.0327 30.2445 22.0356 30.243 22.0358 30.2432C22.0361 30.2434 22.0336 30.2453 22.0277 30.2482ZM12.2507 20.4711C12.2535 20.4653 12.2554 20.4628 12.2556 20.463C12.2558 20.4632 12.2544 20.4661 12.2507 20.4711ZM15.3028 17.5641C17.1545 18.3058 19.1713 19.6975 20.9864 21.5125C22.8014 23.3275 24.193 25.3444 24.9347 27.1961C25.3043 28.1188 25.5454 29.0824 25.5398 30.0056C25.534 30.9397 25.2681 31.9556 24.4864 32.7373C23.7046 33.5191 22.6887 33.785 21.7547 33.7907C20.8314 33.7964 19.8678 33.5553 18.9451 33.1857C17.0934 32.444 15.0765 31.0524 13.2615 29.2373C11.4465 27.4223 10.0549 25.4054 9.31316 23.5537C8.94357 22.631 8.70245 21.6675 8.70811 20.7442C8.71383 19.8101 8.97974 18.7942 9.76149 18.0125C10.5433 17.2307 11.5592 16.9648 12.4932 16.9591C13.4165 16.9534 14.3801 17.1945 15.3028 17.5641Z" fill="#0256BA"/>
</svg>
