<svg width="20" height="20" viewBox="0 0 20 20" fill="none" xmlns="http://www.w3.org/2000/svg">
<path fill-rule="evenodd" clip-rule="evenodd" d="M9.1665 3.33341C5.94484 3.33341 3.33317 5.94509 3.33317 9.16675C3.33317 12.3884 5.94484 15.0001 9.1665 15.0001C12.3882 15.0001 14.9998 12.3884 14.9998 9.16675C14.9998 5.94509 12.3882 3.33341 9.1665 3.33341ZM1.6665 9.16675C1.6665 5.02461 5.02437 1.66675 9.1665 1.66675C13.3086 1.66675 16.6665 5.02461 16.6665 9.16675C16.6665 13.3089 13.3086 16.6667 9.1665 16.6667C5.02437 16.6667 1.6665 13.3089 1.6665 9.16675Z" fill="#B3B1C0"/>
<path fill-rule="evenodd" clip-rule="evenodd" d="M13.3276 13.3273C13.653 13.0019 14.1806 13.0019 14.5061 13.3273L18.0894 16.9107C18.4149 17.2361 18.4149 17.7637 18.0894 18.0892C17.764 18.4146 17.2363 18.4146 16.9109 18.0892L13.3276 14.5058C13.0021 14.1804 13.0021 13.6528 13.3276 13.3273Z" fill="#B3B1C0"/>
</svg>
