<svg width="250" height="48" viewBox="0 0 250 48" fill="none" xmlns="http://www.w3.org/2000/svg">
<path d="M59.6444 7.8673C59.6444 8.48297 59.5713 9.04477 59.425 9.5527C59.2788 10.0606 59.0556 10.5031 58.7555 10.8802C58.4554 11.2496 58.0744 11.5382 57.6126 11.746L59.5982 13.9625H57.3587L55.8464 12.1154C55.8234 12.1154 55.8003 12.1154 55.7772 12.1154C55.7618 12.1154 55.7425 12.1154 55.7195 12.1154C55.0499 12.1154 54.465 12.0154 53.9648 11.8153C53.4723 11.6075 53.0644 11.3189 52.7411 10.9495C52.4256 10.5724 52.187 10.1222 52.0254 9.59888C51.8715 9.07556 51.7945 8.49451 51.7945 7.85575C51.7945 7.00151 51.9331 6.25885 52.2101 5.62779C52.4949 4.99673 52.9258 4.50804 53.503 4.16172C54.0879 3.80771 54.8306 3.6307 55.731 3.6307C56.6237 3.6307 57.3587 3.80771 57.9359 4.16172C58.5131 4.50804 58.9402 5.00057 59.2172 5.63933C59.502 6.2704 59.6444 7.01305 59.6444 7.8673ZM53.63 7.8673C53.63 8.44449 53.7031 8.94088 53.8494 9.35646C53.9956 9.77203 54.2226 10.0914 54.5304 10.3146C54.8383 10.5378 55.2346 10.6494 55.7195 10.6494C56.2197 10.6494 56.6199 10.5378 56.92 10.3146C57.2279 10.0914 57.451 9.77203 57.5896 9.35646C57.7358 8.94088 57.8089 8.44449 57.8089 7.8673C57.8089 6.99766 57.6473 6.31657 57.3241 5.82403C57.0008 5.3315 56.4698 5.08523 55.731 5.08523C55.2385 5.08523 54.8383 5.19682 54.5304 5.42C54.2226 5.64318 53.9956 5.96256 53.8494 6.37814C53.7031 6.79372 53.63 7.29011 53.63 7.8673ZM68.0587 9.09095C68.0587 9.66044 67.9317 10.1761 67.6777 10.6378C67.4315 11.0919 67.0544 11.4536 66.5464 11.7229C66.0462 11.9846 65.4113 12.1154 64.6417 12.1154C63.5489 12.1154 62.7177 11.8384 62.1482 11.2843C61.5787 10.7225 61.294 9.98367 61.294 9.06786V3.75768H63.0371V8.80235C63.0371 9.47959 63.1756 9.95674 63.4527 10.2338C63.7297 10.5108 64.1415 10.6494 64.6879 10.6494C65.0727 10.6494 65.3843 10.584 65.6229 10.4531C65.8615 10.3223 66.0346 10.1184 66.1424 9.8413C66.2578 9.56425 66.3155 9.21408 66.3155 8.79081V3.75768H68.0587V9.09095ZM72.4783 3.75768C73.2248 3.75768 73.8405 3.85003 74.3254 4.03474C74.8102 4.21174 75.1719 4.48495 75.4105 4.85435C75.6491 5.21606 75.7683 5.67396 75.7683 6.22807C75.7683 6.60517 75.6952 6.93609 75.549 7.22084C75.4105 7.49789 75.2219 7.73647 74.9834 7.93656C74.7525 8.12896 74.5024 8.28672 74.233 8.40986L76.6572 12H74.7179L72.7554 8.83698H71.8203V12H70.0772V3.75768H72.4783ZM72.3514 5.18912H71.8203V7.41709H72.386C72.7708 7.41709 73.0825 7.37476 73.321 7.29011C73.5596 7.20545 73.7328 7.07847 73.8405 6.90916C73.9483 6.73215 74.0021 6.52051 74.0021 6.27425C74.0021 6.01258 73.9406 5.8048 73.8174 5.65088C73.702 5.48926 73.5211 5.37382 73.2749 5.30456C73.0363 5.2276 72.7285 5.18912 72.3514 5.18912ZM80.7802 12H77.0284V11.0072L78.0327 10.5455V5.21221L77.0284 4.75046V3.75768H80.7802V4.75046L79.7759 5.21221V10.5455L80.7802 11.0072V12ZM82.1847 12V3.75768H83.9279V10.557H87.2756V12H82.1847ZM91.7942 12H88.0424V11.0072L89.0468 10.5455V5.21221L88.0424 4.75046V3.75768H91.7942V4.75046L90.7899 5.21221V10.5455L91.7942 11.0072V12ZM98.0587 9.71432C98.0587 10.1992 97.9394 10.6224 97.7009 10.9841C97.4623 11.3458 97.116 11.6267 96.6619 11.8268C96.2156 12.0192 95.6691 12.1154 95.0227 12.1154C94.7379 12.1154 94.457 12.0962 94.18 12.0577C93.9106 12.0192 93.649 11.9654 93.395 11.8961C93.1487 11.8191 92.914 11.7268 92.6908 11.6191V9.99137C93.0833 10.1607 93.4874 10.3184 93.9029 10.4647C94.3262 10.6032 94.7456 10.6725 95.1612 10.6725C95.446 10.6725 95.673 10.634 95.8423 10.557C96.0193 10.4801 96.1463 10.3762 96.2233 10.2453C96.3079 10.1145 96.3502 9.96443 96.3502 9.79512C96.3502 9.58733 96.2771 9.41033 96.1309 9.26411C95.9924 9.11788 95.8038 8.9832 95.5653 8.86007C95.3267 8.72924 95.0535 8.59071 94.7456 8.44449C94.5532 8.35214 94.3455 8.2444 94.1223 8.12126C93.8991 7.99043 93.6836 7.83267 93.4758 7.64796C93.2757 7.45557 93.1103 7.22469 92.9794 6.95533C92.8486 6.68598 92.7832 6.36275 92.7832 5.98565C92.7832 5.49311 92.8948 5.07368 93.118 4.72737C93.3488 4.37336 93.6721 4.104 94.0876 3.9193C94.5109 3.7346 95.0073 3.64225 95.5768 3.64225C96.0078 3.64225 96.4156 3.69227 96.8004 3.79232C97.1929 3.89236 97.6008 4.03474 98.0241 4.21944L97.4584 5.58161C97.0813 5.4277 96.7427 5.30841 96.4426 5.22375C96.1424 5.1391 95.8346 5.09677 95.5191 5.09677C95.3036 5.09677 95.1189 5.1314 94.965 5.20067C94.8111 5.26993 94.6918 5.36613 94.6071 5.48926C94.5302 5.6124 94.4917 5.75862 94.4917 5.92793C94.4917 6.12033 94.5494 6.28579 94.6648 6.42432C94.7803 6.55515 94.9534 6.68213 95.1843 6.80526C95.4152 6.9284 95.7038 7.07462 96.0501 7.24393C96.4734 7.44402 96.8312 7.65181 97.1237 7.8673C97.4238 8.08278 97.6547 8.33675 97.8163 8.62919C97.9779 8.92164 98.0587 9.28334 98.0587 9.71432ZM106.31 12H104.567V8.44449H101.3V12H99.5569V3.75768H101.3V6.98996H104.567V3.75768H106.31V12ZM115.218 7.79803C115.218 8.72154 115.041 9.49498 114.687 10.1184C114.333 10.7417 113.817 11.2112 113.14 11.5267C112.47 11.8422 111.662 12 110.716 12H108.384V3.75768H110.97C111.832 3.75768 112.578 3.9116 113.209 4.21944C113.848 4.52727 114.341 4.98133 114.687 5.58161C115.041 6.1742 115.218 6.91301 115.218 7.79803ZM113.405 7.84421C113.405 7.23623 113.317 6.736 113.14 6.34351C112.963 5.95102 112.697 5.66242 112.343 5.47772C111.997 5.28532 111.57 5.18912 111.062 5.18912H110.127V10.557H110.877C111.732 10.557 112.367 10.33 112.782 9.87593C113.198 9.42187 113.405 8.74463 113.405 7.84421ZM121.748 12L121.148 10.0375H118.147L117.546 12H115.665L118.574 3.72305H120.709L123.63 12H121.748ZM120.132 6.65519C120.094 6.52436 120.044 6.3589 119.982 6.15881C119.92 5.95871 119.859 5.75477 119.797 5.54698C119.736 5.33919 119.686 5.15834 119.647 5.00442C119.609 5.15834 119.555 5.35074 119.486 5.58161C119.424 5.8048 119.363 6.02028 119.301 6.22807C119.247 6.42816 119.205 6.57054 119.174 6.65519L118.585 8.57147H120.732L120.132 6.65519ZM130.847 12H129.104V5.21221H126.864V3.75768H133.087V5.21221H130.847V12ZM139.102 12H134.358V3.75768H139.102V5.18912H136.101V7.00151H138.894V8.43295H136.101V10.557H139.102V12ZM147.478 12H145.481L143.565 8.88316L141.648 12H139.778L142.514 7.75186L139.951 3.75768H141.879L143.657 6.72446L145.4 3.75768H147.282L144.696 7.84421L147.478 12ZM155.824 12H153.608L150.018 5.76632H149.971C149.979 5.95871 149.987 6.15496 149.994 6.35505C150.002 6.54745 150.01 6.7437 150.018 6.94379C150.033 7.13619 150.044 7.33243 150.052 7.53253C150.06 7.72492 150.068 7.92117 150.075 8.12126V12H148.517V3.75768H150.722L154.3 9.93365H154.335C154.327 9.74125 154.32 9.5527 154.312 9.368C154.304 9.1756 154.296 8.98705 154.289 8.80235C154.289 8.60995 154.285 8.4214 154.277 8.2367C154.27 8.0443 154.262 7.85191 154.254 7.65951V3.75768H155.824V12ZM160.99 12H157.238V11.0072L158.242 10.5455V5.21221L157.238 4.75046V3.75768H160.99V4.75046L159.985 5.21221V10.5455L160.99 11.0072V12ZM169.02 12H167.035L164.876 8.5253L164.137 9.05632V12H162.394V3.75768H164.137V7.53253C164.253 7.37091 164.368 7.2093 164.484 7.04768C164.599 6.88607 164.715 6.72446 164.83 6.56284L167.058 3.75768H168.997L166.123 7.40554L169.02 12ZM176.545 12L174.56 5.53544H174.513C174.521 5.68936 174.533 5.92023 174.548 6.22807C174.563 6.53591 174.579 6.86683 174.594 7.22084C174.61 7.56716 174.617 7.88269 174.617 8.16744V12H173.059V3.75768H175.437L177.388 10.0606H177.422L179.489 3.75768H181.867V12H180.239V8.09818C180.239 7.83651 180.243 7.53637 180.251 7.19775C180.266 6.85913 180.278 6.53975 180.285 6.23961C180.301 5.93178 180.312 5.7009 180.32 5.54698H180.274L178.15 12H176.545ZM188.693 12H183.949V3.75768H188.693V5.18912H185.692V7.00151H188.486V8.43295H185.692V10.557H188.693V12ZM191.736 3.88467C191.667 4.15402 191.578 4.44647 191.47 4.762C191.363 5.06984 191.247 5.38152 191.124 5.69705C191.001 6.00489 190.874 6.30118 190.743 6.58593H189.508C189.562 6.35505 189.616 6.11648 189.67 5.87021C189.723 5.62394 189.774 5.37767 189.82 5.1314C189.874 4.87744 189.92 4.63502 189.958 4.40414C190.004 4.17326 190.043 3.95778 190.074 3.75768H191.655L191.736 3.88467ZM195.587 7.15158L197.307 3.75768H199.188L196.452 8.79081V12H194.721V8.84853L191.985 3.75768H193.878L195.587 7.15158ZM207.482 7.8673C207.482 8.50606 207.402 9.0871 207.24 9.61042C207.086 10.126 206.848 10.5724 206.524 10.9495C206.209 11.3266 205.801 11.6152 205.301 11.8153C204.808 12.0154 204.227 12.1154 203.558 12.1154C202.888 12.1154 202.303 12.0154 201.803 11.8153C201.31 11.6075 200.902 11.3189 200.579 10.9495C200.264 10.5724 200.025 10.1222 199.863 9.59888C199.71 9.07556 199.633 8.49451 199.633 7.85575C199.633 7.00151 199.771 6.25885 200.048 5.62779C200.333 4.99673 200.764 4.50804 201.341 4.16172C201.926 3.80771 202.669 3.6307 203.569 3.6307C204.462 3.6307 205.197 3.80771 205.774 4.16172C206.351 4.50804 206.778 5.00057 207.055 5.63933C207.34 6.2704 207.482 7.01305 207.482 7.8673ZM201.468 7.8673C201.468 8.44449 201.541 8.94088 201.687 9.35646C201.834 9.77203 202.061 10.0914 202.368 10.3146C202.676 10.5378 203.073 10.6494 203.558 10.6494C204.058 10.6494 204.458 10.5378 204.758 10.3146C205.066 10.0914 205.289 9.77203 205.428 9.35646C205.574 8.94088 205.647 8.44449 205.647 7.8673C205.647 6.99766 205.485 6.31657 205.162 5.82403C204.839 5.3315 204.308 5.08523 203.569 5.08523C203.077 5.08523 202.676 5.19682 202.368 5.42C202.061 5.64318 201.834 5.96256 201.687 6.37814C201.541 6.79372 201.468 7.29011 201.468 7.8673ZM211.591 3.75768C212.337 3.75768 212.953 3.85003 213.438 4.03474C213.923 4.21174 214.284 4.48495 214.523 4.85435C214.762 5.21606 214.881 5.67396 214.881 6.22807C214.881 6.60517 214.808 6.93609 214.662 7.22084C214.523 7.49789 214.334 7.73647 214.096 7.93656C213.865 8.12896 213.615 8.28672 213.346 8.40986L215.77 12H213.83L211.868 8.83698H210.933V12H209.19V3.75768H211.591ZM211.464 5.18912H210.933V7.41709H211.499C211.883 7.41709 212.195 7.37476 212.434 7.29011C212.672 7.20545 212.845 7.07847 212.953 6.90916C213.061 6.73215 213.115 6.52051 213.115 6.27425C213.115 6.01258 213.053 5.8048 212.93 5.65088C212.815 5.48926 212.634 5.37382 212.387 5.30456C212.149 5.2276 211.841 5.18912 211.464 5.18912ZM216.81 12V3.75768H218.554V10.557H221.901V12H216.81ZM228.382 12L227.782 10.0375H224.781L224.18 12H222.299L225.208 3.72305H227.343L230.264 12H228.382ZM226.766 6.65519C226.728 6.52436 226.678 6.3589 226.616 6.15881C226.555 5.95871 226.493 5.75477 226.431 5.54698C226.37 5.33919 226.32 5.15834 226.281 5.00442C226.243 5.15834 226.189 5.35074 226.12 5.58161C226.058 5.8048 225.997 6.02028 225.935 6.22807C225.881 6.42816 225.839 6.57054 225.808 6.65519L225.219 8.57147H227.367L226.766 6.65519ZM236.168 9.71432C236.168 10.1992 236.049 10.6224 235.81 10.9841C235.571 11.3458 235.225 11.6267 234.771 11.8268C234.325 12.0192 233.778 12.1154 233.132 12.1154C232.847 12.1154 232.566 12.0962 232.289 12.0577C232.02 12.0192 231.758 11.9654 231.504 11.8961C231.258 11.8191 231.023 11.7268 230.8 11.6191V9.99137C231.193 10.1607 231.597 10.3184 232.012 10.4647C232.435 10.6032 232.855 10.6725 233.27 10.6725C233.555 10.6725 233.782 10.634 233.952 10.557C234.129 10.4801 234.255 10.3762 234.332 10.2453C234.417 10.1145 234.459 9.96443 234.459 9.79512C234.459 9.58733 234.386 9.41033 234.24 9.26411C234.102 9.11788 233.913 8.9832 233.674 8.86007C233.436 8.72924 233.163 8.59071 232.855 8.44449C232.662 8.35214 232.455 8.2444 232.231 8.12126C232.008 7.99043 231.793 7.83267 231.585 7.64796C231.385 7.45557 231.219 7.22469 231.089 6.95533C230.958 6.68598 230.892 6.36275 230.892 5.98565C230.892 5.49311 231.004 5.07368 231.227 4.72737C231.458 4.37336 231.781 4.104 232.197 3.9193C232.62 3.7346 233.116 3.64225 233.686 3.64225C234.117 3.64225 234.525 3.69227 234.91 3.79232C235.302 3.89236 235.71 4.03474 236.133 4.21944L235.568 5.58161C235.191 5.4277 234.852 5.30841 234.552 5.22375C234.252 5.1391 233.944 5.09677 233.628 5.09677C233.413 5.09677 233.228 5.1314 233.074 5.20067C232.92 5.26993 232.801 5.36613 232.716 5.48926C232.639 5.6124 232.601 5.75862 232.601 5.92793C232.601 6.12033 232.659 6.28579 232.774 6.42432C232.889 6.55515 233.063 6.68213 233.294 6.80526C233.524 6.9284 233.813 7.07462 234.159 7.24393C234.583 7.44402 234.94 7.65181 235.233 7.8673C235.533 8.08278 235.764 8.33675 235.926 8.62919C236.087 8.92164 236.168 9.28334 236.168 9.71432ZM244.419 12H242.676V8.44449H239.409V12H237.666V3.75768H239.409V6.98996H242.676V3.75768H244.419V12ZM58.6285 19.7577L55.8234 28H53.9186L51.125 19.7577H52.8912L54.4381 24.6638C54.4689 24.7485 54.5112 24.9062 54.5651 25.1371C54.6266 25.3603 54.6882 25.5989 54.7498 25.8528C54.8113 26.0991 54.8537 26.3069 54.8768 26.4762C54.8998 26.3069 54.9383 26.0991 54.9922 25.8528C55.0538 25.5989 55.1153 25.3603 55.1769 25.1371C55.2385 24.9062 55.2808 24.7485 55.3039 24.6638L56.8623 19.7577H58.6285ZM64.2544 28L63.6541 26.0375H60.6527L60.0525 28H58.1708L61.0799 19.7231H63.2155L66.1361 28H64.2544ZM62.6383 22.6552C62.5998 22.5244 62.5498 22.3589 62.4882 22.1588C62.4266 21.9587 62.3651 21.7548 62.3035 21.547C62.2419 21.3392 62.1919 21.1583 62.1534 21.0044C62.115 21.1583 62.0611 21.3507 61.9918 21.5816C61.9303 21.8048 61.8687 22.0203 61.8071 22.2281C61.7533 22.4282 61.7109 22.5705 61.6801 22.6552L61.0914 24.5715H63.2386L62.6383 22.6552ZM75.0386 25.7143C75.0386 26.1992 74.9194 26.6224 74.6808 26.9841C74.4422 27.3458 74.0959 27.6267 73.6418 27.8268C73.1955 28.0192 72.6491 28.1154 72.0026 28.1154C71.7179 28.1154 71.437 28.0962 71.1599 28.0577C70.8906 28.0192 70.6289 27.9654 70.3749 27.8961C70.1287 27.8191 69.8939 27.7268 69.6708 27.6191V25.9914C70.0632 26.1607 70.4673 26.3184 70.8829 26.4647C71.3061 26.6032 71.7256 26.6725 72.1411 26.6725C72.4259 26.6725 72.6529 26.634 72.8222 26.557C72.9992 26.4801 73.1262 26.3762 73.2032 26.2453C73.2878 26.1145 73.3302 25.9644 73.3302 25.7951C73.3302 25.5873 73.257 25.4103 73.1108 25.2641C72.9723 25.1179 72.7837 24.9832 72.5452 24.8601C72.3066 24.7292 72.0334 24.5907 71.7256 24.4445C71.5332 24.3521 71.3254 24.2444 71.1022 24.1213C70.879 23.9904 70.6635 23.8327 70.4557 23.648C70.2556 23.4556 70.0902 23.2247 69.9593 22.9553C69.8285 22.686 69.7631 22.3627 69.7631 21.9856C69.7631 21.4931 69.8747 21.0737 70.0979 20.7274C70.3288 20.3734 70.652 20.104 71.0676 19.9193C71.4908 19.7346 71.9872 19.6422 72.5567 19.6422C72.9877 19.6422 73.3956 19.6923 73.7804 19.7923C74.1729 19.8924 74.5807 20.0347 75.004 20.2194L74.4384 21.5816C74.0613 21.4277 73.7226 21.3084 73.4225 21.2238C73.1224 21.1391 72.8145 21.0968 72.499 21.0968C72.2835 21.0968 72.0988 21.1314 71.9449 21.2007C71.791 21.2699 71.6717 21.3661 71.587 21.4893C71.5101 21.6124 71.4716 21.7586 71.4716 21.9279C71.4716 22.1203 71.5293 22.2858 71.6448 22.4243C71.7602 22.5551 71.9333 22.6821 72.1642 22.8053C72.3951 22.9284 72.6837 23.0746 73.03 23.2439C73.4533 23.444 73.8111 23.6518 74.1036 23.8673C74.4037 24.0828 74.6346 24.3367 74.7962 24.6292C74.9578 24.9216 75.0386 25.2833 75.0386 25.7143ZM79.7114 28H77.9683V21.2122H75.7288V19.7577H81.9509V21.2122H79.7114V28ZM87.4549 28L86.8546 26.0375H83.8532L83.2529 28H81.3713L84.2803 19.7231H86.4159L89.3365 28H87.4549ZM85.8387 22.6552C85.8003 22.5244 85.7502 22.3589 85.6887 22.1588C85.6271 21.9587 85.5655 21.7548 85.504 21.547C85.4424 21.3392 85.3924 21.1583 85.3539 21.0044C85.3154 21.1583 85.2615 21.3507 85.1923 21.5816C85.1307 21.8048 85.0691 22.0203 85.0076 22.2281C84.9537 22.4282 84.9114 22.5705 84.8806 22.6552L84.2919 24.5715H86.439L85.8387 22.6552ZM97.6877 28H95.4713L91.8811 21.7663H91.835C91.8427 21.9587 91.8504 22.155 91.858 22.3551C91.8657 22.5475 91.8734 22.7437 91.8811 22.9438C91.8965 23.1362 91.9081 23.3324 91.9158 23.5325C91.9235 23.7249 91.9312 23.9212 91.9389 24.1213V28H90.3804V19.7577H92.5853L96.1639 25.9336H96.1985C96.1908 25.7413 96.1831 25.5527 96.1755 25.368C96.1678 25.1756 96.1601 24.9871 96.1524 24.8024C96.1524 24.61 96.1485 24.4214 96.1408 24.2367C96.1331 24.0443 96.1254 23.8519 96.1177 23.6595V19.7577H97.6877V28ZM106.605 23.798C106.605 24.7215 106.428 25.495 106.074 26.1184C105.72 26.7417 105.204 27.2112 104.527 27.5267C103.858 27.8422 103.05 28 102.103 28H99.7711V19.7577H102.357C103.219 19.7577 103.965 19.9116 104.596 20.2194C105.235 20.5273 105.728 20.9813 106.074 21.5816C106.428 22.1742 106.605 22.913 106.605 23.798ZM104.793 23.8442C104.793 23.2362 104.704 22.736 104.527 22.3435C104.35 21.951 104.085 21.6624 103.731 21.4777C103.384 21.2853 102.957 21.1891 102.449 21.1891H101.514V26.557H102.265C103.119 26.557 103.754 26.33 104.169 25.8759C104.585 25.4219 104.793 24.7446 104.793 23.8442ZM113.135 28L112.535 26.0375H109.534L108.933 28H107.052L109.961 19.7231H112.097L115.017 28H113.135ZM111.519 22.6552C111.481 22.5244 111.431 22.3589 111.369 22.1588C111.308 21.9587 111.246 21.7548 111.185 21.547C111.123 21.3392 111.073 21.1583 111.034 21.0044C110.996 21.1583 110.942 21.3507 110.873 21.5816C110.811 21.8048 110.75 22.0203 110.688 22.2281C110.634 22.4282 110.592 22.5705 110.561 22.6552L109.972 24.5715H112.12L111.519 22.6552ZM118.462 19.7577C119.209 19.7577 119.824 19.85 120.309 20.0347C120.794 20.2117 121.156 20.4849 121.394 20.8544C121.633 21.2161 121.752 21.674 121.752 22.2281C121.752 22.6052 121.679 22.9361 121.533 23.2208C121.394 23.4979 121.206 23.7365 120.967 23.9366C120.736 24.129 120.486 24.2867 120.217 24.4099L122.641 28H120.702L118.739 24.837H117.804V28H116.061V19.7577H118.462ZM118.335 21.1891H117.804V23.4171H118.37C118.755 23.4171 119.066 23.3748 119.305 23.2901C119.543 23.2055 119.717 23.0785 119.824 22.9092C119.932 22.7322 119.986 22.5205 119.986 22.2742C119.986 22.0126 119.924 21.8048 119.801 21.6509C119.686 21.4893 119.505 21.3738 119.259 21.3046C119.02 21.2276 118.712 21.1891 118.335 21.1891ZM126.856 28H125.113V21.2122H122.874V19.7577H129.096V21.2122H126.856V28ZM130.367 28V19.7577H132.11V26.557H135.458V28H130.367ZM141.939 28L141.338 26.0375H138.337L137.737 28H135.855L138.764 19.7231H140.9L143.82 28H141.939ZM140.323 22.6552C140.284 22.5244 140.234 22.3589 140.173 22.1588C140.111 21.9587 140.049 21.7548 139.988 21.547C139.926 21.3392 139.876 21.1583 139.838 21.0044C139.799 21.1583 139.745 21.3507 139.676 21.5816C139.615 21.8048 139.553 22.0203 139.491 22.2281C139.438 22.4282 139.395 22.5705 139.364 22.6552L138.776 24.5715H140.923L140.323 22.6552ZM149.724 25.7143C149.724 26.1992 149.605 26.6224 149.366 26.9841C149.128 27.3458 148.782 27.6267 148.327 27.8268C147.881 28.0192 147.335 28.1154 146.688 28.1154C146.403 28.1154 146.123 28.0962 145.846 28.0577C145.576 28.0192 145.315 27.9654 145.061 27.8961C144.814 27.8191 144.58 27.7268 144.356 27.6191V25.9914C144.749 26.1607 145.153 26.3184 145.568 26.4647C145.992 26.6032 146.411 26.6725 146.827 26.6725C147.112 26.6725 147.339 26.634 147.508 26.557C147.685 26.4801 147.812 26.3762 147.889 26.2453C147.973 26.1145 148.016 25.9644 148.016 25.7951C148.016 25.5873 147.943 25.4103 147.796 25.2641C147.658 25.1179 147.469 24.9832 147.231 24.8601C146.992 24.7292 146.719 24.5907 146.411 24.4445C146.219 24.3521 146.011 24.2444 145.788 24.1213C145.565 23.9904 145.349 23.8327 145.141 23.648C144.941 23.4556 144.776 23.2247 144.645 22.9553C144.514 22.686 144.449 22.3627 144.449 21.9856C144.449 21.4931 144.56 21.0737 144.783 20.7274C145.014 20.3734 145.338 20.104 145.753 19.9193C146.176 19.7346 146.673 19.6422 147.242 19.6422C147.673 19.6422 148.081 19.6923 148.466 19.7923C148.858 19.8924 149.266 20.0347 149.69 20.2194L149.124 21.5816C148.747 21.4277 148.408 21.3084 148.108 21.2238C147.808 21.1391 147.5 21.0968 147.185 21.0968C146.969 21.0968 146.784 21.1314 146.631 21.2007C146.477 21.2699 146.357 21.3661 146.273 21.4893C146.196 21.6124 146.157 21.7586 146.157 21.9279C146.157 22.1203 146.215 22.2858 146.33 22.4243C146.446 22.5551 146.619 22.6821 146.85 22.8053C147.081 22.9284 147.369 23.0746 147.716 23.2439C148.139 23.444 148.497 23.6518 148.789 23.8673C149.089 24.0828 149.32 24.3367 149.482 24.6292C149.643 24.9216 149.724 25.2833 149.724 25.7143ZM157.976 28H156.232V24.4445H152.966V28H151.222V19.7577H152.966V22.99H156.232V19.7577H157.976V28ZM163.224 28H161.481V21.2122H159.241V19.7577H165.464V21.2122H163.224V28ZM169.817 28H166.065V27.0072L167.069 26.5455V21.2122L166.065 20.7505V19.7577H169.817V20.7505L168.812 21.2122V26.5455L169.817 27.0072V28ZM173.622 19.7577C174.369 19.7577 174.985 19.85 175.469 20.0347C175.954 20.2117 176.316 20.4849 176.555 20.8544C176.793 21.2161 176.912 21.674 176.912 22.2281C176.912 22.6052 176.839 22.9361 176.693 23.2208C176.555 23.4979 176.366 23.7365 176.127 23.9366C175.897 24.129 175.646 24.2867 175.377 24.4099L177.801 28H175.862L173.899 24.837H172.964V28H171.221V19.7577H173.622ZM173.495 21.1891H172.964V23.4171H173.53C173.915 23.4171 174.227 23.3748 174.465 23.2901C174.704 23.2055 174.877 23.0785 174.985 22.9092C175.092 22.7322 175.146 22.5205 175.146 22.2742C175.146 22.0126 175.085 21.8048 174.961 21.6509C174.846 21.4893 174.665 21.3738 174.419 21.3046C174.18 21.2276 173.873 21.1891 173.495 21.1891ZM181.924 28H178.172V27.0072L179.177 26.5455V21.2122L178.172 20.7505V19.7577H181.924V20.7505L180.92 21.2122V26.5455L181.924 27.0072V28ZM188.189 25.7143C188.189 26.1992 188.069 26.6224 187.831 26.9841C187.592 27.3458 187.246 27.6267 186.792 27.8268C186.346 28.0192 185.799 28.1154 185.153 28.1154C184.868 28.1154 184.587 28.0962 184.31 28.0577C184.041 28.0192 183.779 27.9654 183.525 27.8961C183.279 27.8191 183.044 27.7268 182.821 27.6191V25.9914C183.213 26.1607 183.617 26.3184 184.033 26.4647C184.456 26.6032 184.876 26.6725 185.291 26.6725C185.576 26.6725 185.803 26.634 185.972 26.557C186.149 26.4801 186.276 26.3762 186.353 26.2453C186.438 26.1145 186.48 25.9644 186.48 25.7951C186.48 25.5873 186.407 25.4103 186.261 25.2641C186.122 25.1179 185.934 24.9832 185.695 24.8601C185.457 24.7292 185.184 24.5907 184.876 24.4445C184.683 24.3521 184.475 24.2444 184.252 24.1213C184.029 23.9904 183.814 23.8327 183.606 23.648C183.406 23.4556 183.24 23.2247 183.109 22.9553C182.979 22.686 182.913 22.3627 182.913 21.9856C182.913 21.4931 183.025 21.0737 183.248 20.7274C183.479 20.3734 183.802 20.104 184.218 19.9193C184.641 19.7346 185.137 19.6422 185.707 19.6422C186.138 19.6422 186.546 19.6923 186.93 19.7923C187.323 19.8924 187.731 20.0347 188.154 20.2194L187.588 21.5816C187.211 21.4277 186.873 21.3084 186.573 21.2238C186.272 21.1391 185.965 21.0968 185.649 21.0968C185.434 21.0968 185.249 21.1314 185.095 21.2007C184.941 21.2699 184.822 21.3661 184.737 21.4893C184.66 21.6124 184.622 21.7586 184.622 21.9279C184.622 22.1203 184.679 22.2858 184.795 22.4243C184.91 22.5551 185.083 22.6821 185.314 22.8053C185.545 22.9284 185.834 23.0746 186.18 23.2439C186.603 23.444 186.961 23.6518 187.254 23.8673C187.554 24.0828 187.785 24.3367 187.946 24.6292C188.108 24.9216 188.189 25.2833 188.189 25.7143ZM196.44 28H194.697V24.4445H191.43V28H189.687V19.7577H191.43V22.99H194.697V19.7577H196.44V28ZM204.595 28H200.843V27.0072L201.847 26.5455V21.2122L200.843 20.7505V19.7577H204.595V20.7505L203.591 21.2122V26.5455L204.595 27.0072V28ZM205.999 28V19.7577H207.743V26.557H211.09V28H205.999ZM216.013 28L214.027 21.5354H213.981C213.989 21.6894 214 21.9202 214.016 22.2281C214.031 22.5359 214.047 22.8668 214.062 23.2208C214.077 23.5672 214.085 23.8827 214.085 24.1674V28H212.527V19.7577H214.905L216.856 26.0606H216.89L218.957 19.7577H221.335V28H219.707V24.0982C219.707 23.8365 219.711 23.5364 219.718 23.1978C219.734 22.8591 219.745 22.5398 219.753 22.2396C219.768 21.9318 219.78 21.7009 219.788 21.547H219.742L217.617 28H216.013ZM226.499 28H222.747V27.0072L223.751 26.5455V21.2122L222.747 20.7505V19.7577H226.499V20.7505L225.495 21.2122V26.5455L226.499 27.0072V28ZM230.466 23.1516L232.186 19.7577H234.068L231.332 24.7908V28H229.6V24.8485L226.864 19.7577H228.758L230.466 23.1516ZM234.414 25.6104V24.2021H237.439V25.6104H234.414ZM55.3385 44H53.5954V37.2122H51.3559V35.7577H57.578V37.2122H55.3385V44ZM63.082 44L62.4817 42.0375H59.4803L58.88 44H56.9984L59.9074 35.7231H62.0431L64.9637 44H63.082ZM61.4659 38.6552C61.4274 38.5244 61.3774 38.3589 61.3158 38.1588C61.2542 37.9587 61.1927 37.7548 61.1311 37.547C61.0695 37.3392 61.0195 37.1583 60.981 37.0044C60.9425 37.1583 60.8887 37.3507 60.8194 37.5816C60.7578 37.8048 60.6963 38.0203 60.6347 38.2281C60.5808 38.4282 60.5385 38.5705 60.5077 38.6552L59.919 40.5715H62.0661L61.4659 38.6552ZM72.8415 39.798C72.8415 40.7215 72.6645 41.495 72.3105 42.1184C71.9565 42.7417 71.4409 43.2112 70.7636 43.5267C70.0941 43.8422 69.286 44 68.3394 44H66.0076V35.7577H68.5934C69.4553 35.7577 70.2018 35.9116 70.8329 36.2194C71.4717 36.5273 71.9642 36.9813 72.3105 37.5816C72.6645 38.1742 72.8415 38.913 72.8415 39.798ZM71.0291 39.8442C71.0291 39.2362 70.9406 38.736 70.7636 38.3435C70.5866 37.951 70.3211 37.6624 69.9671 37.4777C69.6208 37.2853 69.1937 37.1891 68.6857 37.1891H67.7507V42.557H68.501C69.3553 42.557 69.9902 42.33 70.4058 41.8759C70.8213 41.4219 71.0291 40.7446 71.0291 39.8442ZM82.0331 39.8673C82.0331 40.483 81.96 41.0448 81.8138 41.5527C81.6676 42.0606 81.4444 42.5031 81.1443 42.8802C80.8441 43.2496 80.4632 43.5382 80.0014 43.746L81.987 45.9625H79.7475L78.2352 44.1154C78.2121 44.1154 78.189 44.1154 78.166 44.1154C78.1506 44.1154 78.1313 44.1154 78.1082 44.1154C77.4387 44.1154 76.8538 44.0154 76.3536 43.8153C75.861 43.6075 75.4531 43.3189 75.1299 42.9495C74.8144 42.5724 74.5758 42.1222 74.4142 41.5989C74.2603 41.0756 74.1833 40.4945 74.1833 39.8558C74.1833 39.0015 74.3218 38.2589 74.5989 37.6278C74.8836 36.9967 75.3146 36.508 75.8918 36.1617C76.4767 35.8077 77.2194 35.6307 78.1198 35.6307C79.0125 35.6307 79.7475 35.8077 80.3247 36.1617C80.9018 36.508 81.329 37.0006 81.606 37.6393C81.8908 38.2704 82.0331 39.0131 82.0331 39.8673ZM76.0188 39.8673C76.0188 40.4445 76.0919 40.9409 76.2381 41.3565C76.3843 41.772 76.6114 42.0914 76.9192 42.3146C77.227 42.5378 77.6234 42.6494 78.1082 42.6494C78.6085 42.6494 79.0087 42.5378 79.3088 42.3146C79.6166 42.0914 79.8398 41.772 79.9783 41.3565C80.1246 40.9409 80.1977 40.4445 80.1977 39.8673C80.1977 38.9977 80.0361 38.3166 79.7128 37.824C79.3896 37.3315 78.8586 37.0852 78.1198 37.0852C77.6272 37.0852 77.227 37.1968 76.9192 37.42C76.6114 37.6432 76.3843 37.9626 76.2381 38.3781C76.0919 38.7937 76.0188 39.2901 76.0188 39.8673ZM86.8227 44H83.0709V43.0072L84.0752 42.5455V37.2122L83.0709 36.7505V35.7577H86.8227V36.7505L85.8184 37.2122V42.5455L86.8227 43.0072V44ZM95.7077 39.8673C95.7077 40.483 95.6345 41.0448 95.4883 41.5527C95.3421 42.0606 95.1189 42.5031 94.8188 42.8802C94.5186 43.2496 94.1377 43.5382 93.6759 43.746L95.6615 45.9625H93.422L91.9097 44.1154C91.8866 44.1154 91.8635 44.1154 91.8405 44.1154C91.8251 44.1154 91.8058 44.1154 91.7827 44.1154C91.1132 44.1154 90.5283 44.0154 90.0281 43.8153C89.5355 43.6075 89.1277 43.3189 88.8044 42.9495C88.4889 42.5724 88.2503 42.1222 88.0887 41.5989C87.9348 41.0756 87.8578 40.4945 87.8578 39.8558C87.8578 39.0015 87.9964 38.2589 88.2734 37.6278C88.5582 36.9967 88.9891 36.508 89.5663 36.1617C90.1512 35.8077 90.8939 35.6307 91.7943 35.6307C92.687 35.6307 93.422 35.8077 93.9992 36.1617C94.5764 36.508 95.0035 37.0006 95.2805 37.6393C95.5653 38.2704 95.7077 39.0131 95.7077 39.8673ZM89.6933 39.8673C89.6933 40.4445 89.7664 40.9409 89.9126 41.3565C90.0589 41.772 90.2859 42.0914 90.5937 42.3146C90.9016 42.5378 91.2979 42.6494 91.7827 42.6494C92.283 42.6494 92.6832 42.5378 92.9833 42.3146C93.2911 42.0914 93.5143 41.772 93.6528 41.3565C93.7991 40.9409 93.8722 40.4445 93.8722 39.8673C93.8722 38.9977 93.7106 38.3166 93.3873 37.824C93.0641 37.3315 92.5331 37.0852 91.7943 37.0852C91.3017 37.0852 90.9016 37.1968 90.5937 37.42C90.2859 37.6432 90.0589 37.9626 89.9126 38.3781C89.7664 38.7937 89.6933 39.2901 89.6933 39.8673ZM104.895 39.8673C104.895 40.5061 104.815 41.0871 104.653 41.6104C104.499 42.126 104.26 42.5724 103.937 42.9495C103.622 43.3266 103.214 43.6152 102.714 43.8153C102.221 44.0154 101.64 44.1154 100.97 44.1154C100.301 44.1154 99.716 44.0154 99.2158 43.8153C98.7233 43.6075 98.3154 43.3189 97.9922 42.9495C97.6766 42.5724 97.4381 42.1222 97.2764 41.5989C97.1225 41.0756 97.0456 40.4945 97.0456 39.8558C97.0456 39.0015 97.1841 38.2589 97.4611 37.6278C97.7459 36.9967 98.1769 36.508 98.7541 36.1617C99.339 35.8077 100.082 35.6307 100.982 35.6307C101.875 35.6307 102.61 35.8077 103.187 36.1617C103.764 36.508 104.191 37.0006 104.468 37.6393C104.753 38.2704 104.895 39.0131 104.895 39.8673ZM98.881 39.8673C98.881 40.4445 98.9542 40.9409 99.1004 41.3565C99.2466 41.772 99.4736 42.0914 99.7815 42.3146C100.089 42.5378 100.486 42.6494 100.97 42.6494C101.471 42.6494 101.871 42.5378 102.171 42.3146C102.479 42.0914 102.702 41.772 102.841 41.3565C102.987 40.9409 103.06 40.4445 103.06 39.8673C103.06 38.9977 102.898 38.3166 102.575 37.824C102.252 37.3315 101.721 37.0852 100.982 37.0852C100.489 37.0852 100.089 37.1968 99.7815 37.42C99.4736 37.6432 99.2466 37.9626 99.1004 38.3781C98.9542 38.7937 98.881 39.2901 98.881 39.8673ZM109.428 44H107.685V37.2122H105.445V35.7577H111.667V37.2122H109.428V44ZM119.019 44H115.267V43.0072L116.272 42.5455V37.2122L115.267 36.7505V35.7577H119.019V36.7505L118.015 37.2122V42.5455L119.019 43.0072V44ZM127.731 44H125.515L121.924 37.7663H121.878C121.886 37.9587 121.894 38.155 121.901 38.3551C121.909 38.5475 121.917 38.7437 121.924 38.9438C121.94 39.1362 121.951 39.3324 121.959 39.5325C121.967 39.7249 121.975 39.9212 121.982 40.1213V44H120.424V35.7577H122.629L126.207 41.9336H126.242C126.234 41.7413 126.226 41.5527 126.219 41.368C126.211 41.1756 126.203 40.9871 126.196 40.8024C126.196 40.61 126.192 40.4214 126.184 40.2367C126.176 40.0443 126.169 39.8519 126.161 39.6595V35.7577H127.731V44ZM134.674 41.7143C134.674 42.1992 134.555 42.6224 134.317 42.9841C134.078 43.3458 133.732 43.6267 133.278 43.8268C132.831 44.0192 132.285 44.1154 131.638 44.1154C131.354 44.1154 131.073 44.0962 130.796 44.0577C130.526 44.0192 130.265 43.9654 130.011 43.8961C129.764 43.8191 129.53 43.7268 129.307 43.6191V41.9914C129.699 42.1607 130.103 42.3184 130.519 42.4647C130.942 42.6032 131.361 42.6725 131.777 42.6725C132.062 42.6725 132.289 42.634 132.458 42.557C132.635 42.4801 132.762 42.3762 132.839 42.2453C132.924 42.1145 132.966 41.9644 132.966 41.7951C132.966 41.5873 132.893 41.4103 132.747 41.2641C132.608 41.1179 132.42 40.9832 132.181 40.8601C131.942 40.7292 131.669 40.5907 131.361 40.4445C131.169 40.3521 130.961 40.2444 130.738 40.1213C130.515 39.9904 130.299 39.8327 130.091 39.648C129.891 39.4556 129.726 39.2247 129.595 38.9553C129.464 38.686 129.399 38.3627 129.399 37.9856C129.399 37.4931 129.51 37.0737 129.734 36.7274C129.965 36.3734 130.288 36.104 130.703 35.9193C131.127 35.7346 131.623 35.6422 132.192 35.6422C132.623 35.6422 133.031 35.6923 133.416 35.7923C133.809 35.8924 134.216 36.0347 134.64 36.2194L134.074 37.5816C133.697 37.4277 133.358 37.3084 133.058 37.2238C132.758 37.1391 132.45 37.0968 132.135 37.0968C131.919 37.0968 131.735 37.1314 131.581 37.2007C131.427 37.2699 131.307 37.3661 131.223 37.4893C131.146 37.6124 131.107 37.7586 131.107 37.9279C131.107 38.1203 131.165 38.2858 131.281 38.4243C131.396 38.5551 131.569 38.6821 131.8 38.8053C132.031 38.9284 132.319 39.0746 132.666 39.2439C133.089 39.444 133.447 39.6518 133.739 39.8673C134.039 40.0828 134.27 40.3367 134.432 40.6292C134.594 40.9216 134.674 41.2833 134.674 41.7143ZM139.347 44H137.604V37.2122H135.365V35.7577H141.587V37.2122H139.347V44ZM145.94 44H142.188V43.0072L143.192 42.5455V37.2122L142.188 36.7505V35.7577H145.94V36.7505L144.936 37.2122V42.5455L145.94 43.0072V44ZM150.519 44H148.776V37.2122H146.536V35.7577H152.758V37.2122H150.519V44ZM160.736 41.0909C160.736 41.6604 160.609 42.1761 160.356 42.6378C160.109 43.0919 159.732 43.4536 159.224 43.7229C158.724 43.9846 158.089 44.1154 157.319 44.1154C156.227 44.1154 155.396 43.8384 154.826 43.2843C154.257 42.7225 153.972 41.9837 153.972 41.0679V35.7577H155.715V40.8024C155.715 41.4796 155.853 41.9567 156.13 42.2338C156.408 42.5108 156.819 42.6494 157.366 42.6494C157.75 42.6494 158.062 42.584 158.301 42.4531C158.539 42.3223 158.712 42.1184 158.82 41.8413C158.936 41.5642 158.993 41.2141 158.993 40.7908V35.7577H160.736V41.0909ZM165.93 44H164.186V37.2122H161.947V35.7577H168.169V37.2122H165.93V44ZM172.522 44H168.771V43.0072L169.775 42.5455V37.2122L168.771 36.7505V35.7577H172.522V36.7505L171.518 37.2122V42.5455L172.522 43.0072V44Z" fill="#202B57"/>
<rect x="7.21484" y="23.1104" width="22.54" height="22.54" transform="rotate(-45 7.21484 23.1104)" fill="#A9AFC5"/>
<rect y="23.1831" width="32.7547" height="3.38099" transform="rotate(-45 0 23.1831)" fill="#28366D"/>
<rect x="28.8594" y="10.459" width="11.4101" height="3.38099" transform="rotate(-135 28.8594 10.459)" fill="#28366D"/>
<rect x="41.918" y="23.9695" width="8.48815" height="1.69763" transform="rotate(-135 41.918 23.9695)" fill="#28366D"/>
<rect x="20.7422" y="43.7183" width="11.0931" height="3.38099" transform="rotate(-45 20.7422 43.7183)" fill="#28366D"/>
<rect x="36.0547" y="27.7317" width="8.48815" height="1.69763" transform="rotate(-45 36.0547 27.7317)" fill="#28366D"/>
<rect x="2.48438" y="20.7988" width="32.5068" height="3.38099" transform="rotate(45 2.48438 20.7988)" fill="#28366D"/>
<rect x="22.2539" y="28.6321" width="15.778" height="0.901598" transform="rotate(-45 22.2539 28.6321)" fill="white"/>
<rect x="28.7266" y="23.4602" width="8.51872" height="0.901598" transform="rotate(-135 28.7266 23.4602)" fill="white"/>
<rect x="22.8672" y="29.3208" width="8.51872" height="0.901598" transform="rotate(-135 22.8672 29.3208)" fill="white"/>
<rect x="12.1094" y="27.9558" width="15.778" height="0.901598" transform="rotate(-45 12.1094 27.9558)" fill="white"/>
<rect x="18.0195" y="23.145" width="7.38054" height="6.95147" transform="rotate(-45 18.0195 23.145)" fill="#28366D"/>
</svg>
